<svg xmlns="http://www.w3.org/2000/svg" width="120" height="113" viewBox="0 0 120 113">
  <defs>
    <style>
      .cls-1 {
        fill: #f26522;
        stroke: #000;
        stroke-width: 1px;
        fill-rule: evenodd;
      }
    </style>
  </defs>
  <path class="cls-1" d="M92.594,30.167c-3.358,11.7-12.011,19.5-19.329,17.41S62.74,34.307,66.1,22.6,78.111,3.107,85.427,5.193,95.952,18.464,92.594,30.167ZM40.967,3.072C33.452,4.269,28.92,14.984,30.844,27S40.42,47.8,47.935,46.6s12.05-11.911,10.123-23.931S48.482,1.874,40.967,3.072ZM12.281,36.183C5.3,38.955,2.93,49.455,6.992,59.634s13.018,16.182,20,13.41,9.351-13.273,5.286-23.452S19.262,33.41,12.281,36.183ZM108.1,43.721c-6.911-2.948-16.014,2.83-20.333,12.9S85.554,77.255,92.465,80.2s16.014-2.83,20.332-12.9S115.013,46.667,108.1,43.721Zm-16.35,63.1c8.528-9.034-14.733-46.4-31.792-47.176-17.834-.809-44.978,39.443-35.672,48.723s26.367,1.548,35.672,0S78.6,120.761,91.754,106.817ZM72.445,77.644c-1.282,3.724-4.586,6.2-7.38,5.54s-4.019-4.223-2.737-7.946,4.587-6.2,7.38-5.54S73.727,73.921,72.445,77.644ZM52.733,69.023c-2.87.381-4.6,3.79-3.865,7.615s3.656,6.617,6.526,6.236,4.6-3.79,3.865-7.615S55.6,68.642,52.733,69.023ZM41.78,79.558c-2.666.882-3.57,4.223-2.019,7.462s4.97,5.149,7.637,4.267,3.57-4.223,2.018-7.462S44.446,78.676,41.78,79.558Zm36.587,2.4c-2.639-.938-6.115.9-7.764,4.106s-0.847,6.564,1.792,7.5,6.114-.9,7.763-4.106S81,82.894,78.367,81.957Zm-6.243,20.076C75.38,99.158,66.5,87.268,59.985,87.022c-6.809-.257-17.173,12.55-13.62,15.5s10.067,0.492,13.62,0S67.1,106.469,72.124,102.033Z"/>
</svg>
