<svg xmlns="http://www.w3.org/2000/svg" width="64" height="64" viewBox="0 0 64 64">
  <defs>
    <style>
      .cls-1 {
        fill: #f26522;
        stroke: #000;
        stroke-width: 1px;
        fill-rule: evenodd;
      }
    </style>
  </defs>
  <path class="cls-1" d="M46.223,19.855c-1.465,5.107-5.241,8.508-8.434,7.6s-4.593-5.791-3.128-10.9S39.9,8.047,43.1,8.957,47.688,14.748,46.223,19.855ZM23.695,8.031c-3.279.523-5.257,5.2-4.417,10.443s4.179,9.075,7.458,8.552,5.258-5.2,4.418-10.443S26.974,7.509,23.695,8.031ZM11.177,22.48C8.13,23.69,7.1,28.271,8.869,32.713s5.68,7.061,8.728,5.852,4.08-5.792,2.307-10.234S14.223,21.27,11.177,22.48Zm41.814,3.289C49.975,24.483,46,27,44.118,31.4s-0.968,9,2.048,10.288,6.988-1.235,8.872-5.631S56.006,27.055,52.991,25.769ZM45.856,53.3c3.721-3.942-6.429-20.249-13.873-20.586C24.2,32.363,12.357,49.928,16.417,53.977s11.506,0.675,15.566,0S40.114,59.387,45.856,53.3Z"/>
</svg>
