<svg xmlns="http://www.w3.org/2000/svg" width="120" height="113" viewBox="0 0 120 113">
  <defs>
    <style>
      .cls-1 {
        fill: #f26522;
        stroke: #000;
        stroke-width: 1px;
        fill-rule: evenodd;
      }
    </style>
  </defs>
  <path class="cls-1" d="M43.038,18.62c-1.343,4.575-4.8,7.622-7.732,6.806s-4.21-5.188-2.867-9.762,4.805-7.622,7.731-6.806S44.381,14.045,43.038,18.62ZM22.387,8.028c-3.006.468-4.819,4.657-4.049,9.355s3.83,8.13,6.836,7.661,4.82-4.656,4.049-9.355S25.393,7.56,22.387,8.028ZM10.912,20.972C8.119,22.055,7.172,26.16,8.8,30.139s5.207,6.326,8,5.242,3.74-5.189,2.114-9.168S13.7,19.887,10.912,20.972Zm38.329,2.947c-2.764-1.152-6.406,1.106-8.133,5.044s-0.887,8.065,1.877,9.216,6.406-1.106,8.133-5.044S52.005,25.07,49.242,23.918ZM42.7,48.583c3.411-3.531-5.893-18.14-12.717-18.442-7.134-.316-17.991,15.419-14.269,19.047s10.547,0.605,14.269,0S37.438,54.034,42.7,48.583Z"/>
  <path class="cls-1" d="M105.612,65.855c-1.557,5.107-5.569,8.508-8.962,7.6s-4.88-5.791-3.323-10.9,5.57-8.508,8.962-7.6S107.169,60.748,105.612,65.855ZM81.676,54.031c-3.484.523-5.586,5.2-4.693,10.443s4.44,9.075,7.924,8.552,5.587-5.2,4.694-10.443S85.16,53.509,81.676,54.031ZM68.376,68.48c-3.238,1.21-4.335,5.791-2.452,10.233s6.035,7.061,9.273,5.852,4.335-5.792,2.451-10.234S71.612,67.27,68.376,68.48ZM112.8,71.769c-3.2-1.286-7.425,1.235-9.427,5.631s-1.028,9,2.176,10.288,7.425-1.235,9.427-5.631S116.006,73.055,112.8,71.769ZM105.222,99.3c3.954-3.942-6.831-20.249-14.74-20.586-8.268-.353-20.853,17.212-16.539,21.261s12.225,0.676,16.539,0S99.121,105.387,105.222,99.3Z"/>
</svg>
